<svg xmlns="http://www.w3.org/2000/svg" width="80" height="80" viewBox="0 0 80 80"><g transform="translate(-340 -490)"><circle cx="40" cy="40" r="40" transform="translate(340 490)" fill="#fcdedf"/><g transform="translate(355 505)"><path d="M0,0H50V50H0Z" fill="none"/><path d="M2,34.163H43.665V5H2ZM27,7.083H41.582V17.5H27Zm-10.416,0a6.249,6.249,0,1,1-6.25,6.249A6.268,6.268,0,0,1,16.583,7.083Zm-12.5,22.06c0-5.229,8.271-7.478,12.5-7.478s12.5,2.25,12.5,7.457V32.08h-25Z" transform="translate(2.167 5.418)" fill="#ed2224" opacity="0.3"/><path d="M45.833,3H4.167A4.179,4.179,0,0,0,0,7.166V36.331A4.179,4.179,0,0,0,4.167,40.5H45.833a4.161,4.161,0,0,0,4.146-4.166L50,7.166A4.179,4.179,0,0,0,45.833,3Zm0,33.331H4.167V7.166H45.833ZM43.75,9.25H29.167V19.666H43.75Zm-2.083,4.166-5.208,3.646L31.25,13.416V11.333l5.208,3.646,5.208-3.646ZM18.75,21.749A6.25,6.25,0,1,0,12.5,15.5,6.268,6.268,0,0,0,18.75,21.749Zm0-8.333A2.083,2.083,0,1,1,16.667,15.5,2.089,2.089,0,0,1,18.75,13.416Zm12.5,17.895c0-5.208-8.271-7.458-12.5-7.458S6.25,26.1,6.25,31.311v2.937h25ZM11.417,30.082A14.819,14.819,0,0,1,18.75,28a14.671,14.671,0,0,1,7.333,2.083Z" transform="translate(0 3.251)" fill="#a11619"/></g></g></svg>