<svg xmlns="http://www.w3.org/2000/svg" width="70" height="70" viewBox="0 0 70 70"><g transform="translate(-571 -388)"><circle cx="35" cy="35" r="35" transform="translate(571 388)" fill="#c2e0ff"/><g transform="translate(582.674 399.674)"><rect width="46" height="46" transform="translate(0.326 0.326)" fill="none"/><g transform="translate(3.866 3.866)"><g transform="translate(3.866 11.597)" opacity="0.3"><path d="M4,31.194H34.925V8H4Zm7.731-13.53h5.8v-5.8H21.4v5.8h5.8V21.53H21.4v5.8H17.53v-5.8h-5.8Z" transform="translate(-4 -8)" fill="#c2e0ff"/></g><path d="M36.79,9.731H29.059V5.866A3.877,3.877,0,0,0,25.194,2H17.462A3.877,3.877,0,0,0,13.6,5.866V9.731H5.866A3.877,3.877,0,0,0,2,13.6V36.79a3.877,3.877,0,0,0,3.866,3.866H36.79a3.877,3.877,0,0,0,3.866-3.866V13.6A3.877,3.877,0,0,0,36.79,9.731ZM17.462,5.866h7.731V9.731H17.462ZM36.79,36.79H5.866V13.6H36.79Z" transform="translate(-2 -2)" fill="#4989c8"/><path d="M13.8,25.462h3.866v-5.8h5.8V15.8h-5.8V10H13.8v5.8H8v3.866h5.8Z" transform="translate(3.597 5.462)" fill="#4989c8"/></g></g></g></svg>