<svg xmlns="http://www.w3.org/2000/svg" width="70" height="70" viewBox="0 0 70 70"><g transform="translate(-448 -388)"><circle cx="35" cy="35" r="35" transform="translate(448 388)" fill="#c2e0ff"/><g transform="translate(460 400)"><path d="M0,0H45.49V45.49H0Z" fill="none"/><path d="M21.42,28.369l6.88,6.861,6.861-6.88L28.3,21.489ZM10.54,3.71,3.66,10.59l6.88,6.861,6.861-6.88Z" transform="translate(3.277 3.322)" fill="#c2e0ff"/><path d="M31.853,20.994,39.4,13.451a1.888,1.888,0,0,0,0-2.673L31.171,2.552a1.888,1.888,0,0,0-2.673,0L20.954,10.1,13.411,2.552A1.942,1.942,0,0,0,12.065,2a1.9,1.9,0,0,0-1.327.55L2.512,10.778a1.888,1.888,0,0,0,0,2.673l7.544,7.544L2.512,28.538a1.888,1.888,0,0,0,0,2.673l8.226,8.226a1.888,1.888,0,0,0,2.673,0l7.544-7.544L28.5,39.437a1.861,1.861,0,0,0,1.346.55,1.942,1.942,0,0,0,1.346-.55l8.226-8.226a1.888,1.888,0,0,0,0-2.673l-7.563-7.544ZM20.992,15.27a1.9,1.9,0,1,1-1.9,1.9A1.9,1.9,0,0,1,20.992,15.27Zm-8.927,3.715-6.88-6.861,6.88-6.88L18.926,12.1ZM17.2,22.852a1.9,1.9,0,1,1,1.9-1.9A1.9,1.9,0,0,1,17.2,22.852Zm3.791,3.791a1.9,1.9,0,1,1,1.9-1.9A1.9,1.9,0,0,1,20.992,26.643Zm3.791-7.582a1.9,1.9,0,1,1-1.9,1.9A1.9,1.9,0,0,1,24.783,19.061Zm5.042,17.7L22.945,29.9l6.88-6.88,6.861,6.861Z" transform="translate(1.753 1.789)" fill="#4989c8"/></g></g></svg>