<svg xmlns="http://www.w3.org/2000/svg" width="41.594" height="41.594" viewBox="0 0 41.594 41.594"><g transform="translate(-1434.203 -1495.203)"><path d="M20.595,4A16.595,16.595,0,1,0,37.189,20.595,16.617,16.617,0,0,0,20.595,4ZM16.446,30.966l-8.3-8.3,2.925-2.925L16.446,25.1l13.67-13.67,2.925,2.946Z" transform="translate(1434.405 1495.406)" fill="#c2e0ff"/><path d="M22.8,2a20.8,20.8,0,1,0,20.8,20.8A20.8,20.8,0,0,0,22.8,2Zm0,37.435A16.638,16.638,0,1,1,39.435,22.8,16.66,16.66,0,0,1,22.8,39.435ZM32.343,13.6,18.638,27.31l-5.386-5.366-2.932,2.932L18.638,33.2,35.276,16.558Z" transform="translate(1432.203 1493.203)" fill="#4989c8"/></g></svg>