<svg xmlns="http://www.w3.org/2000/svg" width="80" height="80" viewBox="0 0 80 80"><g transform="translate(-566 -486)"><circle cx="40" cy="40" r="40" transform="translate(566 486)" fill="#fcdedf"/><g transform="translate(581 501)"><path d="M0,0H50V50H0Z" fill="none"/><path d="M8,5H24.826v6.31H8Z" transform="translate(8.587 5.402)" fill="#ed2224" opacity="0.3"/><circle cx="2.103" cy="2.103" r="2.103" transform="translate(35.386 21.856)" fill="#a11619"/><path d="M37.349,13.384H35.27V3H10.317V13.384H8.238A6.226,6.226,0,0,0,2,19.614v12.46h8.317v8.307H35.27V32.074h8.317V19.614A6.226,6.226,0,0,0,37.349,13.384ZM14.476,7.153H31.111v6.23H14.476ZM31.111,36.227H14.476V27.92H31.111Zm8.317-8.307H35.27V23.767H10.317V27.92H6.159V19.614a2.084,2.084,0,0,1,2.079-2.077H37.349a2.084,2.084,0,0,1,2.079,2.077Z" transform="translate(2.206 3.31)" fill="#a11619"/><path d="M8.147,16.31H33.027v4.206h4.147V12.1A2.1,2.1,0,0,0,35.1,10H6.073A2.1,2.1,0,0,0,4,12.1v8.413H8.147Zm24.881-5.258a2.1,2.1,0,1,1-2.073,2.1A2.095,2.095,0,0,1,33.027,11.052Z" transform="translate(4.413 10.781)" fill="#ed2224" opacity="0.3"/></g></g></svg>