<svg xmlns="http://www.w3.org/2000/svg" width="70" height="70" viewBox="0 0 70 70"><g transform="translate(-695 -388)"><circle cx="35" cy="35" r="35" transform="translate(695 388)" fill="#c2e0ff"/><g transform="translate(706.459 399.459)"><g transform="translate(-0.048 -0.048)"><rect width="48" height="48" transform="translate(-0.41 -0.411)" fill="none"/></g><g transform="translate(3.908 1.953)"><path d="M6.47,8.637H28.1L17.284,3.24Z" transform="translate(2.271 1.14)" fill="#c2e0ff"/><rect width="3" height="13" transform="translate(6.633 16.588)" fill="#4989c8"/><rect width="5" height="13" transform="translate(16.633 16.588)" fill="#4989c8"/><path d="M41.11,10.777,21.555,1,2,10.777v3.911H41.11Zm-30.369,0,10.814-5.4,10.814,5.4Z" transform="translate(-2 -1)" fill="#4989c8"/><path d="M2,19v3.911H26.248a15.344,15.344,0,0,1-.7-3.911Z" transform="translate(-2 16.199)" fill="#4989c8"/><path d="M20.911,14.419V10H17v6.375Z" transform="translate(12.332 7.599)" fill="#4989c8"/><path d="M23.822,14,16,17.911V22.9c0,4.928,3.344,9.543,7.822,10.657,4.478-1.115,7.822-5.73,7.822-10.657V17.911ZM22.414,27.688l-3.97-3.97,2.073-2.073,1.9,1.9,4.713-4.654L29.2,20.962Z" transform="translate(11.377 11.421)" fill="#4989c8"/></g></g></g></svg>