<svg xmlns="http://www.w3.org/2000/svg" width="80" height="80" viewBox="0 0 80 80"><g transform="translate(-443 -490)"><circle cx="40" cy="40" r="40" transform="translate(443 490)" fill="#fcdedf"/><g transform="translate(458 505)"><path d="M0,0H50V50H0Z" fill="none"/><path d="M34.551,31.353a30.193,30.193,0,0,1-5.494-.951l-2.515,2.515a30.589,30.589,0,0,0,8.03,1.585V31.353ZM5.03,5a32.6,32.6,0,0,0,1.585,8.031l2.536-2.536A27.908,27.908,0,0,1,8.221,5H5.03Z" transform="translate(5.24 5.208)" fill="#ed2224" opacity="0.3"/><path d="M15.73,12.584a23.825,23.825,0,0,1-1.2-7.487,2.1,2.1,0,0,0-2.1-2.1H5.1A2.1,2.1,0,0,0,3,5.1,35.65,35.65,0,0,0,38.653,40.75a2.1,2.1,0,0,0,2.1-2.1V31.333a2.1,2.1,0,0,0-2.1-2.1,23.923,23.923,0,0,1-7.487-1.2,1.761,1.761,0,0,0-.65-.1,2.148,2.148,0,0,0-1.489.608l-4.614,4.614A31.77,31.77,0,0,1,10.592,19.337l4.614-4.614a2.1,2.1,0,0,0,.524-2.139ZM31.1,32.4a26.745,26.745,0,0,0,5.453.944v3.125A32.353,32.353,0,0,1,28.586,34.9ZM8.851,15.164A31.435,31.435,0,0,1,7.257,7.194H10.4a27.264,27.264,0,0,0,.965,5.432Z" transform="translate(3.125 3.125)" fill="#a11619"/></g></g></svg>