<svg xmlns="http://www.w3.org/2000/svg" width="70" height="70" viewBox="0 0 70 70"><g transform="translate(-340 -388)"><circle cx="35" cy="35" r="35" transform="translate(340 388)" fill="#c2e0ff"/><g transform="translate(349.826 397.826)"><path d="M0,0H50.348V50.348H0Z" fill="none"/><path d="M20.734,4A16.734,16.734,0,1,0,37.467,20.734,16.756,16.756,0,0,0,20.734,4Zm2.573,27.882v3.493H18.433V31.841c-3.138-.648-5.794-2.677-5.982-6.212h3.577c.188,1.924,1.506,3.43,4.853,3.43,3.577,0,4.393-1.8,4.393-2.907,0-1.527-.816-2.949-4.895-3.911-4.539-1.109-7.656-2.97-7.656-6.714,0-3.158,2.552-5.187,5.689-5.878V6.092h4.895V9.669a6.451,6.451,0,0,1,5.208,6.212H24.938c-.084-2.029-1.171-3.43-4.058-3.43-2.74,0-4.393,1.234-4.393,2.991,0,1.527,1.192,2.552,4.895,3.493,3.7.962,7.656,2.552,7.656,7.154C29.017,29.435,26.507,31.276,23.306,31.882Z" transform="translate(4.44 4.44)" fill="#c2e0ff"/><path d="M22.954,2A20.954,20.954,0,1,0,43.907,22.954,20.961,20.961,0,0,0,22.954,2Zm0,37.717A16.763,16.763,0,1,1,39.717,22.954,16.785,16.785,0,0,1,22.954,39.717Zm.65-18.565c-3.709-.943-4.9-1.97-4.9-3.5,0-1.76,1.655-3,4.4-3,2.892,0,3.981,1.383,4.065,3.436h3.583a6.5,6.5,0,0,0-5.217-6.223V8.286H20.649v3.541c-3.164.671-5.7,2.724-5.7,5.888,0,3.751,3.122,5.637,7.669,6.726,4.086.964,4.9,2.41,4.9,3.918,0,1.111-.817,2.913-4.4,2.913-3.353,0-4.673-1.509-4.861-3.436h-3.6c.21,3.562,2.85,5.574,5.993,6.223v3.562h4.9v-3.5c3.185-.608,5.7-2.431,5.72-5.8-.021-4.61-3.981-6.2-7.669-7.166Z" transform="translate(2.22 2.22)" fill="#4989c8"/></g></g></svg>